<svg id="Layer_1" data-name="Layer 1" xmlns="http://www.w3.org/2000/svg" viewBox="0 0 477.24 493.11"><defs><style>.cls-1{fill:#ecdcbd;}</style></defs><path class="cls-1" d="M47.12,262.1c.62.06,1.17.12,1.58.19,3.48.59,6.72,1.1,9.66,1.55s5.82.94,8.72,1.49c5.43.92,11,1.8,16.51,2.68,5.73.9,11.56,1.84,17.44,2.83l17.71,2.92c5.82,1,11.61,2,17.16,3,.24.06.69.13,1.32.22l1.84.31a12.32,12.32,0,0,0,1.79.17,2.21,2.21,0,0,0,1.06-.17.45.45,0,0,0,.25-.22,4.65,4.65,0,0,0,.63-2c.16-.91.28-1.7.41-2.37L146.79,251c.07-.39.21-1,.4-1.89s.36-1.8.51-2.68a21.29,21.29,0,0,0,.29-2.54c.44-2.63-1.74-2.72-1.74-2.72L132.9,239a2.82,2.82,0,0,0-2,.33l-.11.06a3.09,3.09,0,0,0-1,2.31c-.16,1.08-.27,2-.4,2.75-.42,2.52-.81,5.08-1.23,7.83-.36,2.39-.77,4.85-1.26,7.32L47.74,246.41a3.92,3.92,0,0,0-2.29.06l-.11.05a2.11,2.11,0,0,0-.67,1.35,18.46,18.46,0,0,0-.4,1.94c-.11.61-.18,1.3-.26,2s-.12,1.12-.15,1.36c-.17,1-.44,2.21-.7,3.49a12.22,12.22,0,0,0-.44,3.43c0,.37.23.83,1,1.15a7.81,7.81,0,0,0,1.59.52A9.71,9.71,0,0,0,47.12,262.1Z" transform="translate(-42.71 -36.91)"/><path class="cls-1" d="M107.08,126a33.23,33.23,0,0,0,1.48,4.56,25.56,25.56,0,0,0,2.68,4.69,25.48,25.48,0,0,0,3.71,4.66l4.36,4.43c1.82,1.85,3.84,3.83,6,6s4.42,4.4,6.73,6.7l18.59,18.81a54.07,54.07,0,0,0,4.55,4.23,27.07,27.07,0,0,0,9.38,5.06,26.18,26.18,0,0,0,9,.85,19.9,19.9,0,0,0,4.65-1.13,19.56,19.56,0,0,0,4.16-2.21,14.27,14.27,0,0,0,4.16-3.8,19.43,19.43,0,0,0,2.42-4.41,22.61,22.61,0,0,0,1.31-9,24.53,24.53,0,0,0-2.42-9.28,25.49,25.49,0,0,0-2.82-4.58,58,58,0,0,0-4.37-4.88l-4.63-4.66c-.25-.25-.56-.6-1-1.06s-.83-.95-1.28-1.41a9.63,9.63,0,0,0-1.36-1.18,2.13,2.13,0,0,0-1.31-.56,2.9,2.9,0,0,0-1.44.92l-6.76,6.67c-.4.42-.9.87-1.45,1.36a2.26,2.26,0,0,0-1,1.61,2.86,2.86,0,0,0,1.12,1.92c.66.61,1.17,1.07,1.55,1.45l3.11,3.16c1,1,2.12,2.09,3.3,3.16a10.21,10.21,0,0,1,2.38,2.93,6.22,6.22,0,0,1,.91,2.91,7.39,7.39,0,0,1-.41,2.47,3.61,3.61,0,0,1-3.14,2.51,7.92,7.92,0,0,1-4.13-.61,12.94,12.94,0,0,1-2.51-2l-34.13-34.54c-.87-.88-1.79-1.78-2.73-2.68a9.28,9.28,0,0,1-2-2.63,6,6,0,0,1-.66-2.61,5.57,5.57,0,0,1,.44-2.47,4,4,0,0,1,3.18-2.5,7.39,7.39,0,0,1,3.89.67,10.32,10.32,0,0,1,3,2.32c1.05,1.13,2.11,2.24,3.3,3.45.84.85,1.72,1.79,2.67,2.87,1.09,1.24,1.92,1.79,2.62,1.71A2.78,2.78,0,0,0,144,129l6.62-6.56c.3-.28.73-.68,1.34-1.21a2.46,2.46,0,0,0,1-1.84,2.51,2.51,0,0,0-.73-1.3,21.08,21.08,0,0,0-1.44-1.54c-.53-.55-1.08-1.07-1.6-1.56s-.93-.83-1.18-1.07c-1.12-1.17-2-2.07-2.7-2.87s-1.7-1.73-2.58-2.49a25.51,25.51,0,0,0-5.35-3.7,31.75,31.75,0,0,0-5.21-2.08,25.41,25.41,0,0,0-10.7-.72,17.25,17.25,0,0,0-10,5.48l-.14.11v.19a22.22,22.22,0,0,0-3,4.27,16.21,16.21,0,0,0-1.66,4.76,25.91,25.91,0,0,0-.16,4.82A30.89,30.89,0,0,0,107.08,126Z" transform="translate(-42.71 -36.91)"/><path class="cls-1" d="M467.37,446l-3.07-3.31c-.36-.38-.83-.91-1.38-1.56s-1.13-1.33-1.73-2-1.15-1.21-1.71-1.72a2.8,2.8,0,0,0-1.74-.92,3.62,3.62,0,0,0-2.65,1.45c-.8.89-1.52,1.62-2.16,2.21l-11.07,10.32-.22.21L440,452.22c-2.31-2.49-4.93-5.25-7.83-8.31s-5.62-6-8.06-8.72c.23-.17.44-.34.66-.52h0a22.06,22.06,0,0,0,2-1.74c1.06-1.06,2.15-2.11,3.29-3.17.32-.31.82-.72,1.46-1.27l2-1.71a15.56,15.56,0,0,0,1.87-1.84,3.19,3.19,0,0,0,.93-1.85,2.79,2.79,0,0,0-1-1.89l-9.34-10a2.93,2.93,0,0,0-2-1.15,3.47,3.47,0,0,0-1.87,1l-1.53,1.42c-.88.76-1.69,1.48-2.45,2.2l-.24.23c-.71.66-1.36,1.3-2,1.9-.31.33-.65.65-1,1l-.18-.2.14.24c-1,1-2.16,2-3.42,3.1l-.11.14a2.12,2.12,0,0,0-.19.37.32.32,0,0,1-.15-.13,15.82,15.82,0,0,0-1.2-1.38c-2.49-2.65-5.09-5.45-7.86-8.36-2.58-2.68-4.82-5.13-6.74-7.28L408,392.38c.62-.59,1.41-1.26,2.4-2.06a4.22,4.22,0,0,0,1.78-2.38,2.43,2.43,0,0,0-1-2.09c-.61-.61-1.16-1.17-1.66-1.7l-6.13-6.59c-.5-.53-1-1.11-1.55-1.76a2.93,2.93,0,0,0-2.17-1.23,4.21,4.21,0,0,0-1.86,1.2l-23.4,21.84a21.49,21.49,0,0,1-1.9,1.58,6.57,6.57,0,0,0-1.68,1.77c-.47.68-.68,1.76.79,3.24,1,1,1.8,1.82,2.46,2.54L387.44,421q9.4,10.07,17.76,19.17c5.38,5.82,11.08,11.84,17,17.89,2.25,2.3,4.49,4.68,6.68,7.08s4.46,4.89,6.7,7.29c.74.79,1.56,1.71,2.45,2.73a4.88,4.88,0,0,0,2.45,1.88,1.91,1.91,0,0,0,.83-.22,5.61,5.61,0,0,0,1.26-1l26-24.19c.94-.88,1.36-1.54,1.37-2,.13-.66-.2-1.36-1-2.17C468.25,446.88,467.74,446.36,467.37,446Z" transform="translate(-42.71 -36.91)"/><path class="cls-1" d="M405.63,161.1c-2.41,2.11-4.88,4.19-7.33,6.16s-5,4.11-7.49,6.16c-.48.4-4.16,3.5-4.14,3.47a2.09,2.09,0,0,0,.32,2.81l19.36,23.59c.11.13.58.71,1.07,1.33a2.16,2.16,0,0,0,3,.39l.76-.55,10.16-7.5c-.07,0,1.29-.88,1.21-.84a2.19,2.19,0,0,0,.49-1,3.07,3.07,0,0,0-1.17-2.41c-.72-.75-1.36-1.45-1.92-2.11L409.38,178c2.61-2.17,5.5-4.63,8.73-7.34s6.29-5.28,9.15-7.56a20.06,20.06,0,0,0,2,2.65c.92,1,1.82,2.11,2.76,3.2.26.31.62.79,1.1,1.41s1,1.32,1.45,2a12,12,0,0,0,1.6,1.81,2.76,2.76,0,0,0,1.46.85h.13a2.66,2.66,0,0,0,1.74-.81l10.34-8.61A3,3,0,0,0,451,163.9a2.84,2.84,0,0,0-.8-1.71L449,160.7c-1.34-1.74-2.59-3.24-3.74-4.48a52.37,52.37,0,0,1-3.58-4.32l-.12-.08a1.36,1.36,0,0,0-.39-.23.48.48,0,0,1,.25-.38c.35-.24.82-.62,1.4-1.09,2.73-2.28,5.62-4.71,8.61-7.24,2.79-2.38,5.35-4.51,7.63-6.3l10.42,12.47c.51.64,1.12,1.43,1.75,2.33a3.61,3.61,0,0,0,2.12,1.71,2.29,2.29,0,0,0,1.82-.85c.63-.56,1.21-1.08,1.76-1.53l6.81-5.66c.52-.45,1.13-.94,1.82-1.44a2.78,2.78,0,0,0,1.26-1.83,3.69,3.69,0,0,0-1-1.7L467,117.39a22.64,22.64,0,0,1-1.34-1.83,6,6,0,0,0-1.54-1.61c-.77-.59-1.77-.38-2.94.64-1,.89-1.85,1.66-2.6,2.28l-14.72,12.27c-6.91,5.72-13.55,11.24-19.74,16.34S411.65,155.84,405.63,161.1Z" transform="translate(-42.71 -36.91)"/><path class="cls-1" d="M519.78,302c0-1.12.67-2.68-.54-3.65-.17-.53.25-.77.35-1.2-1.32-7-4.48-12.72-8.51-15.94a2,2,0,0,0-.6-1s-.05,0-.05-.06a2.32,2.32,0,0,0-1-.37c-.48-1.13-1.56-1.24-2.11-2.25a.42.42,0,0,1-.16-.25l-.34-.17a5.28,5.28,0,0,1-2.72-2.11.65.65,0,0,0-.1-.15,2.64,2.64,0,0,1-.45-.15l-1.22-.62c-.38-.23-.77-.48-1.14-.67a3.41,3.41,0,0,0-1-.32,1.2,1.2,0,0,0-.35-.74,2,2,0,0,0-.13-.25c-2.23-.49-4-1.72-6.23-2.17a10.39,10.39,0,0,0-1.41-.21c-.12-.1-.25-.2-.37-.32a4,4,0,0,0-3.13-.83c-.11,0-.18,0-.3,0a2,2,0,0,0-.19-.15c-.68-.65-1.89-.5-2.73-.91-.63.07-.16.66-.62.8a.94.94,0,0,1-.49-.09c-.35-.26-.72-.46-1.07-.7a2.48,2.48,0,0,0-.75-.59c-.6,0-1.08,1-1.59,1.53l0,0a.51.51,0,0,0,.16.33c.08.09.13.21.2.28s.16.1.2.19c.43-.24.57-.64,1.35-.71a.53.53,0,0,1,.43.37,4.43,4.43,0,0,1,.17,1,6.73,6.73,0,0,0-2.29.18c-.06,0-.18,0-.23.07-.14-.27-.58-1.48-.16-1.92,0,0,0-.09.08-.13-.33-.19-.94.09-1-.49-.23.14-.31.35-.6.47-.05,0-.06,0-.1.05-.74-.39-.22-1.19-.16-1.66v0c-.87-.57-1.81.35-2.71.79,0,0-.06,0-.1,0-.4,0-.54-.45-.74-.76-.06-.08-.09-.18-.17-.21-1,.4-1.08.88-.93,1.46.06.13.1.24.15.38a8,8,0,0,1,.64,1.85.93.93,0,0,1-.63.12.74.74,0,0,0-.36,0,.86.86,0,0,1,0-.66.4.4,0,0,0,0-.31c-.56.08-1.55.07-1.91.55,1,.89.95,2.57,1.88,3.44a2,2,0,0,0,1,.47,3.16,3.16,0,0,0,1.18-1.27.66.66,0,0,1,.48.5c0,.06,0,.07,0,.13.12.38-.43.43-.82.56l-.22.16s-.09,0-.09.1a2.45,2.45,0,0,1,1.09,2.54,2.19,2.19,0,0,0,.2.22c.78.9,1.57,1.76,2.35,2.66a54.33,54.33,0,0,1,6.79,9.48c.06,0,.08,0,.13,0,.29.06.44.29.67.39,0,0,0,.05,0,.08.11.32-.37.35-.15.76a.31.31,0,0,1,.3-.16h.19c.29.49.63,1,1,1.53a57.33,57.33,0,0,1,3.72,6.08.1.1,0,0,0,0,.06,18.81,18.81,0,0,1,.89,2.25,4,4,0,0,1,.29.75c.08.16.1.36.17.52.94,3.5,1.1,7.38,2.48,10.21a.46.46,0,0,0,.1.21,8.5,8.5,0,0,0,.44.79,5.89,5.89,0,0,0,2.48,2.16,1.17,1.17,0,0,0,.29.48,1.39,1.39,0,0,0,.23.32,2,2,0,0,0,.26.25l-.08,0a1.69,1.69,0,0,1,.18.59c.28-.15.56-.24.83-.38a1.61,1.61,0,0,1,1,.45,19.4,19.4,0,0,0,4.45-.81c.51-.07.33-.49.46-.77a1.72,1.72,0,0,0,1.88-.06,2.52,2.52,0,0,0-.19-1.86c.35.32,2.19,0,2.93-.67.43,0,.65.39,1,.49a2.49,2.49,0,0,0,1.19-1.93c.86-.39,1.27.31,1.84-.21-.14-1.15-.9-1.27-1.29-2,.54-.37,1.07,1.15,1.61,1.45,1.45-.62-1.07-2.43.11-3.21a1.39,1.39,0,0,1,.89.77c.14.17.25.32.37.48a1,1,0,0,0,.22.23c3-1.27-1.64-4.2-.85-5.9-1.06-.42-2.69-1.56-2.26-3,.38.17,1,.6,1.41.08.5.1.51,1,1.26.75-.11-.39-.24-.77-.35-1.16.63.91,2.28.13,2.79,1.25,0,0,0,0,0,0-.08.51-.66.46-1.19.51h0a.75.75,0,0,0-.57.28.71.71,0,0,0,0,.14c0,.36.41.66.45,1.1a.91.91,0,0,1-.1.58c-.25.37-.32.71.19.73a2.69,2.69,0,0,0,.86-.1c-.15-.33-.48-.53-.27-.88C518.92,302.36,519.34,302.42,519.78,302Z" transform="translate(-42.71 -36.91)"/><path class="cls-1" d="M117.69,407.47c-1.66-4.76-2-14.19-.66-16-1.32-.34.48-1.27-.16-2.28-.73.07-1.91.78-2.38.44l2.55-.69c-2.21-.4-6.06,1.15-7.9,1.7a3.7,3.7,0,0,0-.52-.77,2.32,2.32,0,0,1-.37.07c.11-.08.21-.11.29-.17a1.56,1.56,0,0,0-.16-.2c-.72.18-1.54.31-1.59.86-3.42-.35-10.09,3.12-14.58,3.06,1.81-1.94,2.83-3.35,5.67-3.43,0-.22-.2-.52,0-.63,1.55.85,4.64-1.53,5.54.42.45-.37-.61-.63,0-1,1.06-.21,2.24-.94,3-.59h0a.68.68,0,0,1,.12-.27c-.11.15,1.64-.37,1.18-.73,2.67-.07,1.94-1,4.64-.41,1.19-1.19,3.39-1.24,4.76-1.68a21.47,21.47,0,0,1,.26-2.4c-1.54.37-2.44.95-3.87.83,1.38-.51,3.61-.54,3.86-1.67-1.66.26-3.66,1.06-6.13,1.66-.26-.22-.37-.67-.68-.86-.5.11-1,.24-1.49.38.07.65.73.66.09,1,.07-1.27-1.07-.58-1.6-.83.7-.21-.07-.45.41-.95-1.08.12-1.2-1.28-1.66-2.07l-1.71.44c.17,1,1.35.53.65,1.51-.35-.47-.75-.88-1.08-1.4a6.78,6.78,0,0,0-2.15.37c-.26-.8,1.4-.6,2-1,.3,1,4-1.28,4.91-.27-.22-1.45,2.2-.89,3.42-1.53-.28.61-.23,1.24.76,1a5.66,5.66,0,0,1-.16-2.28c.83-.5.88.25,1.44.25-.43-.88.95-.72.57-1.19.45.64,2.73-1.46,2.61-.3,1.27-.24,1.16-1.2,1.29-2-.76.08-1.89.79-2.38.43,2.09-.4,2.46-1,.14-.24-1.36.23-3.14,1.12-4.26.93.55-1.26-1-2.1-1.2-3.67.34.19,1-.05,1.51-.2-.28.6-.23,1.24.75,1.07-.55-1.22.23-1.57-.42-2.42a10.16,10.16,0,0,1,1.63.18c-.07-.57.81-.67,1.07-1.12-.16.81,3.26-.39,3.86-.83-.93.14.31-1.47-.27-2.66-.6.18-1.25.35-1.9.52,0,.76.89,1-.11,1.31-.47.09-.33-.82-.52-1.15a6.17,6.17,0,0,1-2.79.55c1-.42,3-.32,2.77-1.37a20.21,20.21,0,0,0-4.8,1.49.9.9,0,0,1,.65.67,4.07,4.07,0,0,0-1.76,1.1,3,3,0,0,1,.92,2.51c-.47-.38-1.32.25-2.39.38,0,0,0-.1-.06-.16-1.06.29-2.25.5-3.62.87.32-.92-.17-.63-.65-.54-2,2.14-3.95,4.25-5.83,6.44-1.21,1.38-2.38,2.78-3.48,4.21.14.48-.2.71.1,1.24-3,3.33-3.45,8.06-5.64,11.83.24,1.18-.06,2.83-.81,3-.45,5.1-.88,12.65,2.62,18.22-.58,1.51.88,2.8,1.69,3.76.82,0,1-.65,1.47-.4.15.37-.14.49,0,.83a2.11,2.11,0,0,0,1.25-.52,5.62,5.62,0,0,1-1.18-2.64c-.6,0-1.63.7-2,.32-.19-1.11,1.26-1.36,1.71-2.13.14.33,0,1,.61.66.36-1.12,1-1.05,1.76-1.95,1,1.34,0,2.74-.57,3.74.62.75.55,2,.49,3.22.08,0,.1-.08.18-.09.28.13.47.2.55.17s.29,0,.57.18a2.86,2.86,0,0,0-.74,2.14v0a1.79,1.79,0,0,0,1.47.42,2.62,2.62,0,0,1,.78-2.13c.37.95.4,2.39,1,2.9.71.07.44-.45.73-.61-.07,1,.69.8,1.1,1.06l0,0a2.59,2.59,0,0,0-.89-1,4.44,4.44,0,0,1,1.48-.7,2.59,2.59,0,0,1,1.69.08,3.41,3.41,0,0,1-1.06,1.14,1.82,1.82,0,0,0-.7,1.2c.46,0,.38-.89,1.1-1a1.59,1.59,0,0,0,1.48.45c.27-1.27,2.54-.66,3.65-1.61.21.6.24,1.48.68,1.72a3,3,0,0,0,1.8-.91c.26.24.49.54,1,.36a13.33,13.33,0,0,0,4.62-2.17.24.24,0,0,1,.08-.09,6,6,0,0,0,1.18-1.19c-.15-.47.2-.7-.11-1.24C121.42,417,119.27,412,117.69,407.47Z" transform="translate(-42.71 -36.91)"/><path class="cls-1" d="M496.92,320c0-.14,0-.29,0-.45l.14-.06a.35.35,0,0,1-.15,0c.14-1.72-1-3.93-1-5.23-.83-1-1.68-1.92-2.46-3-.17-.28-.4-.51-.57-.83-.53-.27-1-.58-1.55-.88-2.17-1.3-4.14-2.91-6.36-4.13-.08-.34-.19-.69-.28-1-1.87-.85-2.72-2.62-3.75-4.29-.27-.42-.51-.84-.81-1.23s-.51-.61-.87-1c-.58-.66-1.28-1.42-1.74-2.06a53.92,53.92,0,0,1-3.4-5.68,45.28,45.28,0,0,1-2.77-5.23,29.46,29.46,0,0,0-1.44-2.6c-.89-1.66-2.1-3.11-3.09-4.61-.09-.15-.22-.29-.31-.43-.67.2-.35.87-1.06,1.09a2.53,2.53,0,0,1-.3,0,.93.93,0,0,0-.43-.07c-.27-.45,0-.61.22-.82a.4.4,0,0,0,.08-.53c-1,.53-1.71,2.21-3.14,2.95-.51.16-.54-.5-1.12-.3.59.54.15,1.27.48,1.61a.17.17,0,0,1,.13,0,2.14,2.14,0,0,1,1.85.25c-.05.06-.1.06-.13.13-.72.84-2.17.41-3.31.55.26,1.27-1.12,1.71-.89,3a1.19,1.19,0,0,1,.27-.17c.76-.37,1.16-.16,1.17.18s-.4.91-1.43.61a9,9,0,0,0-.54,5.87c.28.51-.53.5-.41.91.23,1.09.53,2.49,0,3.5.06,1.08.17,2.2.3,3.33v.2c.08.49.15,1,.24,1.53.13.76.25,1.52.44,2.26.22,1,.45,1.95.74,2.89a50.31,50.31,0,0,0,2.11,6.43,17.53,17.53,0,0,0,1.37,2.66,34.78,34.78,0,0,1,2.7,4.91,3.31,3.31,0,0,1,.14.41.46.46,0,0,1,.17.09,5.57,5.57,0,0,1,1.07.51,2.36,2.36,0,0,0,.2.39,11.33,11.33,0,0,0,1.34,2.16c2,2.48,4.76,3.7,7.42,5,.35-.09.67-.2,1-.27,1,.1,1.34,1.13,2.53.84-.18-.64-.69-.72-.9-1.31.52.81,1.89.18,2.28,1.23,1.73-.33,4.59.85,5.71-1.15a2.66,2.66,0,0,0,1.75-.5c-.77-2.21,1.33-2,2.29-2.89.54,0,.73.53,1.22.59.43-.68,1.11-1.18,1.14-2.06.6-.22.74.35,1.41.06.2-.94-.62-1.46-.87-2.29a6.69,6.69,0,0,1,1.56,1.15C496.53,321.73,495.66,320,496.92,320Z" transform="translate(-42.71 -36.91)"/><path class="cls-1" d="M304.31,138.33l0,.06a2.16,2.16,0,0,0,1.53,1l5.39,1.5c1.05.31,2.29.71,3.7,1.19a6.28,6.28,0,0,0,3,.48.73.73,0,0,0,.31-.07c.51-.23.9-.88,1.23-2.05l.81-2.83c1.48-5.35,2.92-10.58,4.37-15.74,1.47-5.4,2.79-10.25,4-14.88.24-.87.45-1.69.63-2.51a6.3,6.3,0,0,1,.56-1.65,9.52,9.52,0,0,0,2.2.91l6.23,1.75a22.3,22.3,0,0,1,2.33.74l-10.38,37.25a2.91,2.91,0,0,0,.05,2.37,3,3,0,0,0,1.51.78l5.4,1.5c.41.1.93.27,1.6.51s1.35.44,2,.64,1.28.31,1.84.43a2.76,2.76,0,0,0,1.13,0,3.83,3.83,0,0,0,1.19-1.5c.4-1.22.82-2.69.82-2.69h0c.18-.69.36-1.37.53-2L370,58.27c.27-1,.55-1.88.83-2.76a3.84,3.84,0,0,0-.15-2.88l-.06-.14-.16-.05a34.79,34.79,0,0,0-5-1.6c-1.78-.44-3.47-.89-5.09-1.36L358.69,49a3.38,3.38,0,0,0-1.55-.17l-.23.07c-.42.26-.75.94-1,2.11s-.43,1.89-.65,2.56c-1.55,5.69-3.21,11.49-4.9,17.4s-3.19,11.59-4.45,16.77a.75.75,0,0,0-.21.48.28.28,0,0,1,0,.13,10.68,10.68,0,0,1-2.6-.62,32.91,32.91,0,0,0-3.2-1c-.81-.14-1.69-.32-2.57-.53a15.31,15.31,0,0,1-2.29-.68,1.63,1.63,0,0,1-.4-.22l-.28-.25s0,0,0,0c.23-.06.39-.26.63-.68a6.11,6.11,0,0,0,.72-2.16c.17-.82.33-1.58.54-2.31,1.42-5.08,2.88-10.37,4.48-15.86s2.91-10.63,4-15.27a13.54,13.54,0,0,1,.49-1.51,2.26,2.26,0,0,0,.09-1.4,2.49,2.49,0,0,0-1.19-.86,9.44,9.44,0,0,0-1.83-.64c-.65-.19-1.34-.36-2-.52s-1.29-.29-1.76-.42l-3.51-1c-.58-.16-1.17-.35-1.78-.55a3.17,3.17,0,0,0-1.69-.24l-.12,0c-.51.22-.91.89-1.26,2.18l-7,25.09c-1,3.72-2.06,7.42-3.06,11.11l-.49.29.45-.14c-.92,3.29-1.82,6.61-2.7,9.9l-.18.65c-.2,0-.09.07,0,.06l-.57,2q-2.5,9.18-5.07,18.41l-6.12,22c-.21.77-.43,1.57-.67,2.42l-.1.35a6.17,6.17,0,0,0-.33,2.24Z" transform="translate(-42.71 -36.91)"/><path class="cls-1" d="M143.66,381c.36-.09.73-.18,1.05-.28-1.34-3-2.75-5.9-5-7.51-.74.35-1.34.76-1.8,0a1.3,1.3,0,0,1,1.44-.58c-.31-1.45-1.87-.9-2.21-2.34-1.34.25-2.35,1.87-3.54,1.16a2.43,2.43,0,0,1,1.75-1.11c-.51-.62-.29-1.77-.92-1.66-.29,1-1.36,1-2.1.58-.33,1.48-2.72.92-4.07,1.71a9.2,9.2,0,0,0-.2,1.75c1.32-.28,0,.1-.12.45,2.26-.71,2.42-.69,4.87-1.3.28.4.2.81,1,1-.69.2-5.37,1.32-3.58,1.52a.2.2,0,0,1,0-.37c.89.41-.14,1.09,1.06,1.4a1.82,1.82,0,0,0-.11-1.24c.34,0,.41.15.65-.16-.63.45.41,1.24-.42,1,.38.94.75.83.45,1.78.54-.19,1.12-.32,1.71-.48.23-.43-.52-.79.11-1.29.09.38.18.79.31,1.19.53,0,1.46-.66,1.72-.26-.73.34-2.15.31-2.48.86,1.48.45,1-.26,1.86.15-1.86,1-4.84,1.38-7.14,2.11.12,1.32.53,2.82.26,3.51.84-.16,1.34-.34.52-.56a2.72,2.72,0,0,1,3.34.58c-.11-.37.11-1.36.42-.94-.41.72.37.94.17,2.27l1.9-.52c-.19-.45-.68-.73-.08-1,.12.31.19.68.27,1,1.22-.18,2.9-1,3.89-.81q-5.15,1.67-10.47,3.22c.52,7-1.13,12.77-1.68,19.16-2.17,4.22-4.67,8.3-5.24,13.4.71,2.14,1,4.94,2.17,6.35,1.46-.65,1.23,1.39,2.52,1,.59-.26.41-1.8,1-1.5,0,.61-.29,1.75.38,2.22.88,0,.47-.76,1.36-.8a2.71,2.71,0,0,0,2.11,1.12c.59-.19,0-1,.85-1.07,1.63-.19,3.13-.13,3.59,1.56,1.18-.79,2.2,0,3.32-.26,2.53-.57,3.92-2.84,5.34-3.74-.31.12-.08.54,0,.85,1.57-.53.89-2.24,3-2.49,2.19-3.31,4.66-6.48,4-11.36.21-.38.33-.83.85-1.07.18-8.3-1.31-21-6.69-28.28C144.58,380.81,143.8,381.37,143.66,381Z" transform="translate(-42.71 -36.91)"/><path class="cls-1" d="M359.91,139.42q-2.76,4-5.46,8c-.34.52-3,4.53-3,4.49a2.09,2.09,0,0,0,1.1,2.61l25.22,17.18,1.41,1a2.14,2.14,0,0,0,2.95-.46l.57-.74,7.65-10.06c-.07,0,1-1.2.92-1.15a2.3,2.3,0,0,0,.2-1.06c-.13-.74-.73-1.38-1.8-2-.91-.51-1.72-1-2.44-1.47l-13.68-9.17c1.89-2.81,4-6,6.31-9.51s4.54-6.83,6.64-9.82c.1.08.22.16.32.25l2.12,1.55c.09.05.16.11.25.17,1.18.72,2.34,1.5,3.55,2.29.34.22.82.58,1.45,1l1.95,1.48a12.35,12.35,0,0,0,2,1.28,2.74,2.74,0,0,0,1.64.4l.13,0a2.69,2.69,0,0,0,1.44-1.27l7.5-11.17a3,3,0,0,0,.66-1.94,2.85,2.85,0,0,0-1.25-1.42l-1.59-1.08c-1.78-1.29-3.4-2.38-4.86-3.25a54.35,54.35,0,0,1-4.65-3.13l-.13,0a1.22,1.22,0,0,0-.44-.12.47.47,0,0,1,.13-.43c.27-.33.62-.83,1-1.44,2-3,4.06-6.1,6.22-9.38,2-3.06,3.86-5.82,5.54-8.19l13.51,9c.68.47,1.48,1.05,2.34,1.74a3.61,3.61,0,0,0,2.52,1c.54-.07,1-.5,1.51-1.33s.85-1.37,1.25-2L435.64,94c.37-.58.82-1.21,1.34-1.89a2.86,2.86,0,0,0,.7-2.11,3.65,3.65,0,0,0-1.42-1.36L411.74,72.21a17.93,17.93,0,0,1-1.81-1.37A5.93,5.93,0,0,0,408,69.73c-.91-.35-1.81.13-2.64,1.44-.69,1.13-1.31,2.11-1.85,2.92L392.85,90c-5,7.43-9.84,14.61-14.34,21.24s-9,13.45-13.31,20.19C363.48,134.15,361.7,136.83,359.91,139.42Z" transform="translate(-42.71 -36.91)"/><path class="cls-1" d="M144.88,323a2.81,2.81,0,0,0,1.35-.39,3.39,3.39,0,0,0,.87-.66l.1-.12,0-.19c-.16-2-.38-4.07-.62-6.09l-.77-6.18c-.24-2.13-.47-4.25-.62-6.31a45.58,45.58,0,0,0-.85-5.95,15.54,15.54,0,0,0-3.86-7.21,24.25,24.25,0,0,0-6.27-4.89,23.93,23.93,0,0,0-8.15-2.76,44,44,0,0,0-9.59-.38,53.12,53.12,0,0,0-15,3.26,22.92,22.92,0,0,0-10,7.16,8.05,8.05,0,0,0-.71,1.15,1.22,1.22,0,0,0-.16.49c-5-4.67-12.83-6.15-23.21-4.38a35.52,35.52,0,0,0-13.11,4.78,20.44,20.44,0,0,0-8,9.28c-1.62,3.78-2.11,8.43-1.47,13.79l1.48,12a15.22,15.22,0,0,1,.11,2,5.54,5.54,0,0,0,.42,2.16c.22.65.84,1.35,2.41,1.16l13.15-1.59,9-1.17c3-.41,6-.81,9-1.17l62.49-7.62C143.39,323.08,144.12,323,144.88,323ZM85,313.83c-3.58.35-7.43.77-11.46,1.22-3.33.37-6.32.78-9,1.2l0-.08-.14.09c-.45.1-.86.16-1.27.22a.48.48,0,0,0,0-.5.36.36,0,0,0-.08-.13,4.06,4.06,0,0,0-.08-1.79,4.19,4.19,0,0,1-.17-1.38,5.74,5.74,0,0,1,1-3.4c1.29-1.82,3.66-3.1,6.65-3.72a36.11,36.11,0,0,1,4.52-.62,15.76,15.76,0,0,1,3.77.28A10.64,10.64,0,0,1,82,306.38a4.67,4.67,0,0,1,1.84,2.73,32.67,32.67,0,0,1,.81,4.27v.26l.24.06a.53.53,0,0,0,.15.05S85,313.81,85,313.83Zm42-5.12h-.07c-4.43.28-8.61.71-12.36,1.25s-7.87,1.09-12.51,1.65a16.82,16.82,0,0,0-.32-2.26,9.13,9.13,0,0,1-.19-2.67,5.76,5.76,0,0,1,1.45-3.63,10.49,10.49,0,0,1,3.41-2.43,19.6,19.6,0,0,1,4.58-1.36c1.72-.31,3.37-.48,5-.61a16.71,16.71,0,0,1,6.78,1,6.41,6.41,0,0,1,4.12,4.06,5.77,5.77,0,0,1,.36,2.28,8.28,8.28,0,0,0,.2,2.31A.73.73,0,0,0,127,308.71Z" transform="translate(-42.71 -36.91)"/><path class="cls-1" d="M456,194.51c-9.42,3.73-40.25,15.72-41.82,16.42s-1.79,2.34-1.55,2.56c.08.28.68,1.76.79,2.07.29.66.56,1.3.84,1.92s.48,1.08.65,1.47.37,1,.6,1.69a20.36,20.36,0,0,0,.69,2,18.38,18.38,0,0,0,.74,1.71,2.07,2.07,0,0,0,1,1.1,2.39,2.39,0,0,0,2.09-.11l2.43-1c4.38-1.83,9.2-3.75,14.37-5.76l15.1-6a48.21,48.21,0,0,0,2.74,6.73,17.47,17.47,0,0,0,4.06,5.27,21.73,21.73,0,0,0,10.67,4.83,25.74,25.74,0,0,0,4.49.34,31.37,31.37,0,0,0,8.83-1.38c2.49-.79,5-1.74,7.57-2.76s5.26-2.14,8.08-3.24a34.09,34.09,0,0,0,11.47-7.72,19.84,19.84,0,0,0,5.31-10.56,16.18,16.18,0,0,0-.31-6.39,53.71,53.71,0,0,0-2.35-7.11c-.94-2.36-1.93-5-2.94-7.69a78.38,78.38,0,0,0-3.1-7.29l-.08-.13a2.81,2.81,0,0,0-2.87,0c-1.15.5-2.1.94-2.88,1.33a25.35,25.35,0,0,1-3.06,1.26c-1,.35-2,.71-2.92,1.07l-7.31,2.87-.46,0a1.27,1.27,0,0,1,0,.2C475.57,186.77,465.39,190.79,456,194.51Zm38.69,1.42a19.77,19.77,0,0,0,1.52,3.69,7.13,7.13,0,0,1,.92,3.7c0,1.75-1,3.11-2.94,4.15a73.7,73.7,0,0,1-7.17,3.2c-1.54.6-3.08,1.24-4.59,2a27.66,27.66,0,0,1-4.21,1.52,7.68,7.68,0,0,1-3.69,0,5.76,5.76,0,0,1-2.63-1.23,6,6,0,0,1-1.72-3.07,14.07,14.07,0,0,0-1.35-3.79Z" transform="translate(-42.71 -36.91)"/><path class="cls-1" d="M333.92,387.58l.59.11c1.22-1.51,2-3.26,3.2-4.87s2.76-2.76,3.68-4.39l6.76-11.08,3.3-4,1.47-3.87,5-8.12.69-.64a2.26,2.26,0,0,0-.21-.16.64.64,0,0,0,.43,0l.1-.08c.11-.31-.45-1,.44-1.08,0,.26-.27.37,0,.43,0-.13,0-.24.19-.23,0,.08.11.14.17.1l0,0a.18.18,0,0,0,0-.11c-1-.71.59-.39,1.19-1-.33-.66-.82-2.32,0-2,.12-.7-.75-.19-.75-.76,1.08.33.41-1.51,1.65-.87-.23-2.61-.09-3.33,1.45-4.33-.3.22-.55-2.46-1.58-2,0,0,0,0,.07-.06s-.17.09-.25.12c.18-.58.13-.94.74-.35.21-.88.78-.27.1-1.09.78-.45.5.52,1.14.3-.25-.8-.62-1.48.23-1.79-.21,0-.71-.89-.33-.84.62.47.35-.85,1-1-.23-.23-.8,0-.71-.59,1,0,.43-.41.31-.92a1,1,0,0,0,.63-.28c-.61.45.69.76.06.43.62-.48-.81-.65-.13-1.08.4,0,.68,1.41,1,.76a8.18,8.18,0,0,1-.56-1c.23,0,.37.28.44,0-.26,0-.37-.21-.51-.38.27,0,.56.32.68-.09a.55.55,0,0,1-.5-.58c.41-.8.73-.87,1.18-.82-.38,0,0-.28-.07-.65-.6.33-.79.22-1.13-.28,1.17.88.28-.58,0-1.33.8.63.43-.2,1.34.06-.3-.48-.29-1.29-.65-1.67.6-.16.38-2.62-.21-3.69.53,0-.1-3.36-.67-5.61-.35-1.33-1.31-3.28-1.6-4.18a56.89,56.89,0,0,1-1.67-6.82c3.55-.21,7.24-.65,10.73.27,4.54-.85,10.22-1.23,15.28-2.05.19-.66,1.08-1,1-1a18.49,18.49,0,0,0,14.25-10.68c.51-3.48,2.64-7.42,1.39-12.2-.4-1.6-1.6-3.35-2.12-5a43.09,43.09,0,0,0-23.94-26.44c-1.75-.76-4-1-5.58-2.63a8.17,8.17,0,0,1-5.51-2.19c-.09.35.38,1.1-.09,1.12a2.18,2.18,0,0,1-1.45-1.37c-.41,0-1.07.36-.94-.32-.68-.08-.33.64-1,.56-.87-.61-.9-.57-1.91-1.29,0,.24-.19.36-.37.48a1.22,1.22,0,0,0-.34-.85c-1.42.49-1.74-1.1-1.72.2-.24-.7-1.51-.6-2.23-.37-.11-.41-1-1-1.13-.52.24-.1.8.54.28.62a3.2,3.2,0,0,0-2.57-1.22c0,.26.12.61-.13.66-.45,0-.29-.78-.76-.79-.69.06-3.7-.55-4.8-1.6-.15-1,.53-1.62-.08-2.62.72-1.6,1.42-5.68.58-7.93.77-.16.54-2.58,0-3.72.77-.12-.06-.39.57-.74a.55.55,0,0,1-.51-.58c.08-2.48-.65-4.48-1-6.88,0,0,.45.12.44.17-.1-3.2-2.65-7-3.92-9.17a36.16,36.16,0,0,0-5.74-7.84c-1.24-1.19-2.59-2.63-3.74-3.71-4.2-4-9.57-4.62-14.26-5.94.08.46-.76.19-1.08.34-1.06-.85-1.05-1.49-1.91-1.28-.94-1.88-2.83-2.51-4.55-3.4-5.47-5.39-16.11-5.61-21.54-2.67.34,0-1.54.53-1.91.66-.46.87-3.66,1.35-4.55,2.3-.45-.42-1.44.53-.67-.37-.71-.16-.47.42-.81.54-.9-.77-1.89-.94-2.39-1.68a3.23,3.23,0,0,1-3-1.18c-.27.52-.56-.09-1.05.35,0-1-1.17-.34-1-1-.12.62-.79-.27-1,.34-3.33-1.28-7.45-1.67-11.63-1.87a14.18,14.18,0,0,0-2,0c-7.91.61-17.77,5.64-23.43,9.16a15.42,15.42,0,0,1-3.6,2.84c-.1.95.39,1.17.62,1.67a19.88,19.88,0,0,1-8.09-.12c-.35.73-.95.08-1.52.18a24.49,24.49,0,0,0-2.93,1.22,2.71,2.71,0,0,1-2,0c-.19.72-2.86.57-1.82,1.53-.69-.24-1.63-.17-1.63.63-.32-.31-.33-.94-1-.77.42,1.14-1.21.64-1.88.87-.11.54,0,.86-.49,1.39,0-.54-.09-1-.55-1-.7.55.18.81-.1,1.1a5.6,5.6,0,0,0-1.78-.21c-.18.76-.81.27-.93,1.43-.26-.2-.63-1.48-1-.77a5.81,5.81,0,0,0-1.37,1.47c-.51-.24.24-.55-.29-.6-.23.6-.78.81-.73,1.17-.07-.31-.49-.18-.7-.35.09,1.16-.94.17-1,.56.35-.15.06.8-.09.89-.61-1.14-.89,1.07-1.77,0-.26.73-.84,1.5-1.59,1.29,0,.33.18.78-.13.89-.07-.31-.5-.19-.69-.36a14.29,14.29,0,0,1-4.85,5.18c-3.34,5.64-6.49,11.43-8.32,18.26.12.62.07,1.43.43,1.7-1.65,5.29,1,10.89,2.23,16.81-.91,1.1-1.14,2.73-2.16,3.78.33,0,.25.48.31.82-.46.21-.38.86-1,1-1.9,7.35,0,17.79,3.82,26.22a84.19,84.19,0,0,1,7.06,7.88,7.13,7.13,0,0,1,3.88,3.05c.36,0,.73-.12.69.34-1.2,1.74-3.47,2.6-4.25,4.68a.64.64,0,0,0-.48-.38c-1.18,1.7-1.59,2.61-2.9,3.19-.09.33.4,1.08-.08,1.1,0-.26-.71-.66-.68-.13.75.57-1.32.81-.47,1.58-.26,0-.33-.23-.67-.14.12.72.57.88-.06,1.33.09-.6-.49-.38-.73-.58.32.91-.48,1.52,0,2-.46-.08-.49-.61-.89-.12s.88,1,0,1.32c-.06-.34-.07-.76-.5-.59.13.62,0,.75-.4.47-.07.77.36.9.59,1.23-.32,0-.58-.24-.9-.31-.06.85-.33.69-.76,1,.71.52-.53,1.28-.76,1.17.57,0,.13.85-.34.72a1.31,1.31,0,0,0,.36,1,1.23,1.23,0,0,0-1,1c-.1-.32-.5-.21-.71-.37.4,1.33-.51,1.51.26,2.16-.22,0-.23.22-.4.26,0-.7-.48-.63-.14-1.08-1.11.41-.27,1.62-.14,2.44-.48.11-.31-.61-.71-.58.28,1-.32.25-.36.68.37,0,.26.56.44.76-.46-.31-.08.43-.75.38.61,1.08.09.55.63,1.67-.44-.05-.51-.58-.87-.1.07.57,0,1.24.39,1.48-.24.08-.62,0-.62.29.24,0,.55.29.27.42,0-.3-.41-.16-.48-.38,0-.65.18-.84-.14-1.08,0,.27-.21.15-.43.05-.22,1.05,1.54,1.42.71,2.32-.29.05-.77-.81-.89-.11.68-.16-.47.67.31.61,0-.21.34-.31.42-.05-.88.35-.69.24-1.54,0,.29.72.09.82.62,1.44-.5-.44-.73.49-.34.71-.74-.11-.64.42-1,.55-.06,1.12,0,1.12.63,1.69-.28,0-.88-.64-.88-.12.39.06-.06.23-.16.47.28.3.81,1.18.15,1.27-.94-.5.07.08-.08-.64-.75.17-.46.66-1.26.38a1.91,1.91,0,0,0,.37,1.27c-1.06.14,0,1,.21,1.72-.4.47-.45-.05-.91-.13,0,.54.47.44.35,1.06-.5-.37-.42.16-.83.33.37.65-.2,1-.49,1.37.5.26-.15.64.53.81-.89.38-.75-.53-1.17-.73-.12.89.45.91.8,1.21-.38-.12-.89.55-.37.47.72-.68.46.42.58,1.25-.41-.14-.77-.63-.86.11.28.1-.12.67.53.81-1-.06-.18.37-.6.51s-.62-.78-.67-.15a.66.66,0,0,1,.48.39c-.16.06-.42.05-.42.27.61-.54,2,.28,1.65.88-.37-.29-.63-.67-1.18-.72,0,.44.36.4.51.6-.82-.25,0,.75-.56.73,0-.49-.28-.7-.73-.59,0,.52.06,1.86-.34.93-.43.68.28,1.13,0,1.75.53.08.81.46,1.17.72a4.16,4.16,0,0,0-.53.95c.54.05,1.17,1.22.4,1.49-.25-1.28-1.08-2.13-.57-2.8-.31-.07-.57-.25-.9-.31,0,.78.46.91.8,1.22.14.55-.83.27-.53.93.06.4.73.06.71.57-.36.14-.59-.25-.65.09,0,.63,1.46,1.1.87,1.84-.5,0-.56-.6-.94-.73,0,.31.17.78-.13.88.28-1.1-1-1.12-.52-.63-.29.47.43,1.06,0,1.55-.09-.52-.47-.69-.76-1,0,.9.36.81.16,1.51.68.08.44.1,1.09-.13-.48.32.42,1.32.73.59-.2,0-.7-.9-.33-.85.66,0,.56.23.61,1.47-.24,0-.39-.29-.43,0,.31,0,.31.45.51.6-1.06.18.52,2.15.51,2.35.32-.87,0,1.11.71.56.42-.09-.18-.34.17-.46a6,6,0,0,0,1,.77c-.92.07,0,.33.07.63-.22.05-.26-.13-.46-.15a6.65,6.65,0,0,1,.94,2.29c.67-.27.85.1,1.14.3.59-.45-.67-.58-.11-.85,0,.12.07.24.23.19-.13-.59-1.6-.79-1-1.41.45.48.37.26.84-.09.05.38.63,1.3.77.78-.69-.15.16-.61.34-.7.2.93-.5,1.6.28,2.34-.15-.1-1.06-.35-1.07.15a1.5,1.5,0,0,1,.71.36c-.39.24-.81-.57-.88.11.67.82,1.07-.71,1.78.23-.1.53-.11.1-.57.72.05.74.82.62,1,1.18-.7-.26-.65,1.18-.37.5.53-.44.12.86.76,1-.88-1.86.23-2.07.1-2.86.46.25,1,.4,1.21,1a9.41,9.41,0,0,0-1.24.59c.42-.09.26,1.76.75.78.06-.15-.14-.62-.11-.86.48.15,1.82,1.5,1.66.88a1.05,1.05,0,0,1-.74-.53c.38-.15.6.23.66-.11-1.26-.82-1-2.11-1.5-3.31,1,.05-.23-.41.38-.49s.48.41.73.57a.61.61,0,0,0-.87.11c.05.58.41.38.11.86.62.06,2.06.33,1.44,1.14-.23-.78-.29.43-.73-.57a13.27,13.27,0,0,0,1.5,3c-.15-.28-.19-.66.09-.76.24.18.16.81.71.58,0-.32-.16-.79.13-.9.4,1.06.19.77.85-.09-.23.68,0,1.27.83,1.22.29-.59-.31-1.42,0-1.75a1.79,1.79,0,0,0,.53.59c-.09-1.16-.61-1.15,0-1.75-.17,0-.42.05-.45-.16.22,0,.23-.2.39-.28.74,1.6.78,3.52,1.93,3.28-.56-.31.09,0,.43-.06,0-1,.47-.5-.16-1.28.69,0,.77.08.94.53,0-.28.37-.23.4-.47-.16-.05-.43,0-.46-.17.77-.25,1,.23,1,1,.42-.1.71-.25.82-.55-.64-.75.54-.22.31-1.13.34.18,1.21.93.79,1.21,0-.22-.26-.14-.18.25,1.83-.62,0,.41,1.68,1.11.14-.42-.74-.65-.11-.86,0,.39,1.06,1,.5.6,0-.7-.63-.52-.79-1,.43,0,.44-.32.85-.34.37,1,1,2.1,1.3,1.81-.2-.17-.1-.62-.36-1.27.27,0,.54.33.66-.07-.26,0-.37-.21-.49-.37.8.09.27-1,.08-1.12.53.41.93-.4,1.35.28.11.38-1,.8-.31.92,0-.24.17-.37.37-.49a.6.6,0,0,1,.09.87c1-.1.86,1.25,1.89,1.09.21-.58-.6-1-.12-1.08.77.38.22.93,1.39.71.92.8-.94,1.22-.2,1.77,0-.14,0-.29-.08-.43.29,0,.34.25.7.15-.26-.79.35-.89.26-1.57-1-.07-.45-1.22-.85-1.43-1.08.89-.24-.91-.7-.36-.15.54-.27,1.11-1.19,1-.65-.56.23-1.1-.16-1.3a.64.64,0,0,1-.62.53c-.08-.54-.47-.64.12-.89-.2.32-.15.55.3.62.31-.3.25-.87.53-1.16.29.73.05.7.59,1.24-.83-.63-.53,1.36,0,.43-.36-.1.64-.77.08-1,.44.08.73-.24.89,0-.45.13.25,1.46.75.78-.7-.46.25-.16.19-.45a.22.22,0,0,1-.06-.43c.58.18.62,1.36.15,1.29.41,0,.22.69.74.57,0-.33-.18-.78.08-.9.18.39.24.89.57,1,.44-.56-.41-1.06-.16-1.51.66.61.34,1.16.9,2.07-.42-.05-.46-.56-1.12-.3.53.54,1.19.3,1.49,1.58a3.74,3.74,0,0,0-1.09-3.6c.88.48,0-.41.39-.48.4.48,1.14.37.79,1.22.94.09.25-1.1,1-1.21.72.69.14.75.18,1.73.26,0,.57.18.24,0-.24-.71.34-.76.51-1.14,0,.28.42.14.48.36-.18.45,0,1.13.3.63-.4-.05.07-.25.16-.45-.29-.54-1-.59-1.41-.93.38,0,1.49.39,1.7-.21-.6-.37.65-.6.33-.91.78.85.15.58.72,2.33,0-.15,0-.26.21-.25,0,.12.21.23.22,0-1-.51.31-.86-.44-1.7.32,0,.45.25.88.11-.13.71,1.08.95,1,.76,0-.52-.67-.16-.72-.57a11.21,11.21,0,0,0,2.66-1.62c-.44-.05.07-1,.29-1.15-.16,0-.42.05-.44-.14a.59.59,0,0,1,.7.34c-.15.76-.53,1,.36,1.28a2.12,2.12,0,0,1,0-.44c.55-.55-.31.31-.25-.19.39-.48.56-.11.89.11-.32-.93-.06-.88.06-1.32.34.47,0,.41.35,1.06a14.87,14.87,0,0,1,1.8-1.32c0,.25-.84,1,.11.85-.49-.79,1.08-.69.72-1.17,0,.34-.35.08-.46-.16.43.59,1-.55.38-.7-.15.55-1.21.24-1.34-.06.57-1.12,1.53.32,2.11-.69.5.14-.18,1.83.56,1-.09.09.1-1.19.47-1.38.43.61-.13.83.59,1,0-.4.35.09.39-.27a1.89,1.89,0,0,1-.6-1.45c1.32,2,.19.55.29-1.13.63.41.86,1.25,1.51,1.57-.09-.93-.82-1-.38-1.5.77.1.06.87.79,1.23.67-.37-.31-1.3.56-.94,0-.43-.36-.39-.52-.6.94,0,1.89-.31,2.07-1.1.68.94-.05-.51.87.09-.25-.7.07-1.12.59-.71.08-.34-.41-1.1.08-1.11.08.41.22.7.53.81,0-1.77,1.22-3.53,1.69-6.12a11.64,11.64,0,0,1,1,4.7c-.07,1.68,1.23,5,2,7.64,1.92,6.41,4.05,12.32,7.35,15.27a.29.29,0,0,1,.14-.41c.69,1.36.73.9,1.51,1.78-.79,1.13.6.43.87,1.65a1.25,1.25,0,0,0,.83-.31c.6.6.36,1,.65,1.67,1.18-.32.36.95,1.24,1.37.46-.77,1.23-.09,1.42-1,.18.52.9.37.8,1.22.53-1,.89.51.06.43a1.89,1.89,0,0,1,.3,2.36c0,.31.92.75.89.35-.43-.11-1-.62-.31-.86a2,2,0,0,0,2.54,1.24,1.47,1.47,0,0,1,0-1.54c.48.86.33,2.64,1,3.16-.52-.33.65.85.84,1.22.25-1.42-1.3-1.85-.79-2.76.71,0,1.37.79.58,1.24,1.24-.79,1.69,2.93,2,2,.1-.33-.65-2.22-.51-2.55,1,.25.51,2.47,1.63,2.63l-.66.08c0,.56.63,1.49.8,1-.31-.16,1.88-.55,1.56.22.39-.93-.27-1-.67-1.87.33,0,.39.21.66-.09.21,1.25,1,1.91.47,2.35.88.17.43.92.89-.1.52.32.57,1.25,1.07,1.63.22-.32.42-.12,1.06-.13,0-.39-.38-.52-.06-.65.17-.14,1,1,1,1.41-.46.13-.3-.59-.71-.57-.27.78-.31.65.64,1.68a1.34,1.34,0,0,0,.54-.94.86.86,0,0,1,.57,1.23c1-.55.43,1.91,1.67,1.11a1.27,1.27,0,0,1-.79-1.2,3.33,3.33,0,0,1,.93.54c-.15.07-.42.05-.39.27.71-.43.2.72.72.55.43-1-.67-1-.41-1.49.28.62.83,0,.94.36-.44.1.37.53-.14.87.7.15.94.81,1.66.9-.17.09-.41.07-.39.27.69.16,1.11,1.5,1.13.51.68.17.32,1.31,1.29,1.61.2-.57-.75-.83-.12-1.09.44.35.21.38.88.12.47,1.37,1.08,1.46,1.63,1.62.17.13,1.28.62,1.19,0,.1.3.4.32.5.6-.75.69,0,0,.28.41-.5.46-.12.37-.33.92.72-.56.85.12,1.36.49.26-.54-.64-.76-.09-.86.08.24.24.08.44-.06.34.82.75,1.16.6,1.44.68,0,0-1.06.75-1,0,.92.37.84.95.56.14.37.55.49.55,1-.31,0-.43-.26-.88-.13a1.5,1.5,0,0,0,1,1.19c-.28-.9.22-.34.49-1.37-.2,2.44,3,1.19,2.27,2.58,1.11-.83.35.14,1.26-.38,0,.9.72.94,1.07,1.42,0-.7,2.26-.16,2.26.81.94-.45,1,.75,1.55,0,2.49,2.11,6.61,1.54,9.71,2.35,6.91.13,16.38-2.16,23.45-4.55a.3.3,0,0,0,0,.16,23.58,23.58,0,0,0,5.93-2.21s0,0,0,0a0,0,0,0,0,0,0,7.34,7.34,0,0,0,.94-.57l.08.06c0-.06,0-.07,0-.11a10.37,10.37,0,0,0,1.62-1.41c-.06-.36-.07-.73-.14-1.08A17.13,17.13,0,0,0,333.92,387.58Zm-35.84-87.41c-.93-.6-2.49-.7-2.55-2,.77,1,35.52-7,36.42-6.36,0-.81-.95-2.41-1.49-3.26L291.8,296q-2.15-1.85-4.14-3.9c10.76-1.76,23.36-3.78,23.56-4.51l-1.86-2.69-24.26,4.33a46,46,0,0,1-5-7.4c-2.12,1.9-2,5.11-1.4,8.55l-3.51.63c-.79.71-2.89,3.19-2.57,3.93.16-.24,2.85-.77,6.72-1.45.32,1.46.65,2.9.86,4.25-3.06,1.11-7.76,1.47-10.61,2.2-.46,0,.17.61.33.61-.11.69-.61-.14-.88-.07a4.44,4.44,0,0,0,.93,1.61c-.3.36-.82-.19-1.31,0a.64.64,0,0,1,.57-.56c-.62-.21-.74-.62-1.88-.51.4.64.56-.12,1,.48,0,.46-.23.51-.58.34a2.05,2.05,0,0,0,1.42.59c0,.39-.18.49-.37.46,2.05.63,6.86-1,7.73-1.38-.17-.76-.62.58-.67-.09-.13-1.08.59.06,1-.21.23.44-.35.39-.28.72,1.6-.44,2,0,3-.55-.54,2-.6,3.59.54,5.21-.81.17-1.06-.45-1.3-1.09-.16,1.23,1.68,1.75.81,3.15a14.57,14.57,0,0,0-1.42-2.82c-1,.36-.1,1.05.12,1.76-.5.15-.36-.58-.76-.54s-.63.46-.76.81c.13.51.71-.1.6-.33.29.07,0,.83.47,1.22-.39.12-.51-.16-.91,0a1.25,1.25,0,0,1,.39.82c.64.26.22-1,.59-.34s-.17.81-.55.54c-.13.75.72.05.59.79-1-.17-.72.84-1.49.28-5.29,8.95-12.62,20.75-25.24,24.62-5.8,1.75-13,1.43-17.12-1.67-2.94-2.22-4.51-5.83-7.28-8.15-4.94-4.14-13-5.07-15.55-12.12,10.73-1.75,18.31-3.3,27.62-4.93-.73-.3-1.59-.4-2.33-.68.83-.55,1.15-1.42,2.33-1.76-.42-.67-2.34.86-2.49-.19a29.61,29.61,0,0,0,3.64-.69c-4.49.28-7.05,1.22-10.56,1.53-.69-.21.9-.35,1.23-.44-3,.28-3.6.95-5.59.81-2.12,1.53-6.37.77-8.3,1.78a1.25,1.25,0,0,1-1.43-.61c-1.55,1.25-2.17.95-4.63,1.31,1.37-7.41,7.62-13.48,14.49-18.41,9.36-6.76,21.93-13,36.4-14.54,5.68-.62,9.23,3.1,14,2.69,6.15-.55,6.22-6.83,9.32-10.36,2.92-3.31,12.06-9.2,17.69-10.61,1.93-.45,5.24-.53,7.12-1.08.54-.42-.53-.68-.46-1.26.7-.21.52.87.88,1.17,7.6-1.21,15.63-2.91,22.81-4.27,1.69-.32,3.83-.68,5.06-.27,4.16,1.36,10.21,2.48,12.15,8.31a14.05,14.05,0,0,1,.19,9.24c-1.15-.63-1.22.63-2.22,1.07-2.21-.17-2.74,1.47-3.69,1.58.46.3-.06.75.29,1.5a3.93,3.93,0,0,0,2.06.48c-.19,1.78-.54,3.48-.77,5.23-.45.45-1.64.38-1.56,1.18.13.55.8.29,1.37.19.08.42.15.85.24,1.29-1.12.44-1.33-.43-1.75-1a8.24,8.24,0,0,0-4.13,1.44,10.37,10.37,0,0,1,2.19,3.56c5-1,3.63,4.91,2.49,7.28l-3,.57c-.6-.15.26-.3.77-.38-2.25.33-3.59.64-4.44.84-3,.77-6.27.91-9.17,1.71,1.26-1.33-1.53.82-1.66-.57-1.29,1.81-4.28.36-6,2-4.23-.32-8.68,2.27-13.47,2.32-.29.11-.1.55-.08.89-.64.3-.41-.65-.79-.73-2.37.16-4.22,1.2-6,1.1C299.76,301.75,299.1,300.77,298.08,300.17Zm8.73,4.57c.1-.89.88-.13,1.68-.51.28-.44-.89-1.07-.83-2.06a4.46,4.46,0,0,1,1.29,2.17c9.76-2.07,24.16-4.14,32.44-6.07-.26,1.32-2.51,1.25-4.09,1.67a5,5,0,0,0,2.6-.28C332.26,306.54,315.57,308.5,306.81,304.74Z" transform="translate(-42.71 -36.91)"/><path class="cls-1" d="M259.32,312.73c4.58-.59,10-2.45,14-2.19a87.63,87.63,0,0,0-13.45,2.51,89.78,89.78,0,0,0,14.08-2.63c-.39.08-.82-.6-.63-1,.55,1,.89-.7,1.55-.06,0,.42-.9-.23-.79.58.65-.12,1.29-.25,1.93-.35a9.2,9.2,0,0,0-1-2.91c1.13.22.71,1.07,1,1.58.54-1,1.14-.94,1.38-2-1.89.34-2.88.32-5.38.76-.06.76,1.35.72.89,1.17-.69-.68.52,1.47-.45,1.19,0-.68.09-.42-.21-1.06-.51,0-.95-.25-1.26.25C268.26,306.22,259.43,308.77,259.32,312.73Z" transform="translate(-42.71 -36.91)"/><path class="cls-1" d="M259.33,107.58a48,48,0,0,0,.43,5.07c.22,1.5.48,3,.79,4.34a64.85,64.85,0,0,0,2.32,8.21,31.36,31.36,0,0,0,3.51,7,20.49,20.49,0,0,0,4.85,5.23,15.27,15.27,0,0,0,6.58,2.8,22.19,22.19,0,0,0,8.56-.16,18.07,18.07,0,0,0,2.46-.78,17.14,17.14,0,0,0,7.65-6,31.2,31.2,0,0,0,4-9.44,35.49,35.49,0,0,0,.7-12.55,37,37,0,0,0-4.47-14.73,67.24,67.24,0,0,0-7.37-10.76l-.13-.16-.12-.14c-1.45-1.62-2.93-3.19-4.45-4.68a38.07,38.07,0,0,1-4.31-5.15,47.41,47.41,0,0,1-3.41-6,18.53,18.53,0,0,1-1.44-8c.07-.82.13-1.66.22-2.54a10,10,0,0,1,.6-2.47,6.68,6.68,0,0,1,1.07-2,2.15,2.15,0,0,1,1.26-.81.43.43,0,0,1,.17,0,2.44,2.44,0,0,1,1.06-.06l-.09.33.26-.31a1.67,1.67,0,0,1,.83.44,6,6,0,0,1,1.45,2.11,11.67,11.67,0,0,1,.83,2.94c.17,1.11.36,2.23.56,3.28.12.69.22,1.46.32,2.25s.25,1.69.36,2.68a13.8,13.8,0,0,1,.15,2.6,3,3,0,0,0,.77,2.41,2.36,2.36,0,0,0,2.09.44,7.83,7.83,0,0,0,1.93-.47c1.4-.41,2.67-.76,3.74-1s2.17-.54,3.39-.88c.49-.17,1-.33,1.55-.5a3.25,3.25,0,0,0,1.58-1l.1-.13v-.15c-.17-2.6-.4-5.17-.74-7.7l.41.09-.44-.2c-.18-1.26-.36-2.49-.59-3.7a40.28,40.28,0,0,0-3.15-10.1,19.39,19.39,0,0,0-5.79-7.26,16,16,0,0,0-9.2-3,19.35,19.35,0,0,0-8.76,1.27,16.53,16.53,0,0,0-5.86,4.31c-4.47,5.12-6.46,12.9-5.83,23.14a42.77,42.77,0,0,0,1.2,6.71A35.89,35.89,0,0,0,262.85,78,44.13,44.13,0,0,0,270,89.44c2.87,3.34,5.66,6.64,8.28,9.82l.25.31c.54.58,1,1.15,1.52,1.71s1.06,1.27,1.63,2a17,17,0,0,1,2.28,4,19.57,19.57,0,0,1,1.43,4.89,17.31,17.31,0,0,1,.1,5,9.26,9.26,0,0,1-1.66,4.39,5.88,5.88,0,0,1-.9,1,7.84,7.84,0,0,1-.75.63,1.12,1.12,0,0,1-1,0c-.45-.28-.87-.54-1.25-.74A6.14,6.14,0,0,1,278,120c-.37-.92-.78-2.1-1.26-3.62s-.9-2.94-1.3-4.31c-.11-.4-.2-.86-.3-1.3l.08-.08-.12-.08c-.21-1-.41-2-.56-3.08-.09-.67-.16-1.57-.2-2.62a4.49,4.49,0,0,0-.32-1.64s0-.07,0-.11a2.58,2.58,0,0,0-.22-.37s0,0,0,0c-.77-.93-2.85-.62-2.85-.62-.27,0-.54.08-.85.15-1.5.32-2.7.53-3.62.66-.34,0-.9,0-1.6.12l-2.21.19a15.89,15.89,0,0,0-1.83.3l-.24.06a2.08,2.08,0,0,0-1.34.83,2.19,2.19,0,0,0-.11,1.53A11.33,11.33,0,0,1,259.33,107.58Z" transform="translate(-42.71 -36.91)"/><path class="cls-1" d="M510.93,379.68c-.81-.38-1.47-.69-1.94-.95l-4-2.12c-.47-.25-1.07-.58-1.81-1s-1.5-.88-2.28-1.3-1.49-.75-2.17-1.07a2.92,2.92,0,0,0-2-.31,3.75,3.75,0,0,0-2,2.25c-.44,1-.89,2-1.32,2.79l-7.11,13.36-.26-.27.15.48-1.1,2.07c-3-1.61-6.37-3.37-10.12-5.31s-7.2-3.81-10.45-5.62a23.72,23.72,0,0,0,1.73-3c.66-1.33,1.36-2.69,2.09-4.05.2-.39.52-.95,1-1.69l1.38-2.3a14.18,14.18,0,0,0,1.14-2.32,3.05,3.05,0,0,0,.29-2.06,2.88,2.88,0,0,0-1.53-1.48c-.74-.37-1.41-.75-2.05-1.09l-10.07-5.35a2.83,2.83,0,0,0-2.24-.45,3.45,3.45,0,0,0-1.43,1.58l-5.11,9.77h0c-.52,1-1.08,2-1.71,3.05l0,.15a1.71,1.71,0,0,0-.09.43c-.05,0-.1,0-.17-.05a13.19,13.19,0,0,0-1.58-.94c-2.63-1.4-5.4-2.85-8.27-4.34h0l-.26-.13L436,367.5c-3.28-1.69-6.22-3.28-8.73-4.69l5.16-9.71.41-.77.66-1.24.23-.43,1.73-3.25c.4-.77.93-1.67,1.6-2.74a4.2,4.2,0,0,0,.9-2.82c-.1-.67-.63-1.22-1.61-1.67-.77-.36-1.47-.72-2.11-1.05l-8-4.23c-.63-.34-1.33-.72-2-1.16a2.85,2.85,0,0,0-2.45-.46l-.15.1a4.65,4.65,0,0,0-1.2,1.64l-6.85,12.89-.54,1h0l-.05.1-.71,1.34-6.86,12.92c-.38.69-.81,1.41-1.29,2.12a6.93,6.93,0,0,0-1,2.23c-.2.77-.06,1.87,1.83,2.79,1.22.61,2.25,1.14,3.14,1.6l17.24,9.16q12.19,6.48,23,12.34c7.12,3.84,14.49,7.68,21.86,11.39,2.81,1.38,5.71,2.9,8.63,4.52s5.82,3.17,8.72,4.71c1,.49,2,1.09,3.21,1.77,1.35.8,2.22,1.08,2.91,1a1.39,1.39,0,0,0,.44-.22,4.64,4.64,0,0,0,1.18-1.57c.45-.87.86-1.64,1.21-2.28L512,383.75c.61-1.16.81-1.91.64-2.37C512.5,380.72,512,380.17,510.93,379.68Z" transform="translate(-42.71 -36.91)"/><path class="cls-1" d="M357.24,478.23l14,30.14,1.43,3.09a11.1,11.1,0,0,0,.9,1.58,1.91,1.91,0,0,0,1.13.87,2.93,2.93,0,0,0,1.63-.2l.33-.1a18.44,18.44,0,0,0,1.78-.72c.72-.33,1.4-.68,2-1s1.14-.6,1.56-.79.83-.37,1.54-.65,1.44-.6,2.15-.92,1.35-.67,1.93-1a2.57,2.57,0,0,0,1.27-1.25c.31-.61.16-1.47-.48-2.72-.55-1.05-.93-1.85-1.21-2.43l-4-8.6h0l-9.17-19.7-1.6-3.43-.62-1.33,1.19-.52h0l1-.45h0l2.28-1,.16-.08h0l.5-.22,0,0,.56-.27,3.44-1.55h0l2.42-1,.83-.42a.59.59,0,0,0-.14,0v0l.89-.4s0,0,0,0l.69-.35a3.16,3.16,0,0,0,1.44-1.47,2.89,2.89,0,0,0-.34-2.11l-5.8-12.43a2.92,2.92,0,0,0-1.43-1.67,3,3,0,0,0-2.41.41c-.79.42-1.52.79-2.18,1.07l-11.21,5.24c-1.62-3.47-3.32-7.1-5.13-10.88s-3.38-7.21-4.7-10.2L370,423.33c.74-.33,1.68-.74,3-1.23s2.18-1.17,2.38-2a3.76,3.76,0,0,0-.52-2L369,405.65a3.58,3.58,0,0,0-1.39-1.7l-.2-.06a4.3,4.3,0,0,0-2.18.61l-3.52,1.64-3.36,1.56-.62.29L355,409.26,336.29,418c-1.64.75-3.39,1.2-4.57,2.15-.57.46-1.06,1.41-.11,3.26.61,1.22,1.14,2.28,1.55,3.17l6.54,14,3,6.48,14.16,30.38Z" transform="translate(-42.71 -36.91)"/><path class="cls-1" d="M327,466.58a2.87,2.87,0,0,0-.95-2,3,3,0,0,0-2.42-.22c-.88.18-1.68.35-2.41.48L309.08,467c-.67-3.76-1.39-7.69-2.17-11.83s-1.41-7.84-1.89-11.06l17.31-3c.84-.17,1.89-.31,3.2-.44,1.57-.17,2.38-.54,2.83-1.34a4.05,4.05,0,0,0,0-2.06l-2-11.21c-.14-.71-.27-1.47-.42-2.28a3.46,3.46,0,0,0-.89-2l-.17-.1a3.87,3.87,0,0,0-2.26,0l-2.55.45-28.9,5.11a24.08,24.08,0,0,1-2.47.3,6.92,6.92,0,0,0-2.52.61c-.67.28-1.38,1.08-.93,3.12.27,1.32.49,2.48.68,3.46l4.85,27.43h0l1.09,6.15,9.77,55.27.59,3.37a11.48,11.48,0,0,0,.46,1.76,2,2,0,0,0,.85,1.13,3.08,3.08,0,0,0,1.65.22,15.33,15.33,0,0,0,2.25-.25c.77-.14,1.52-.29,2.24-.46s1.27-.28,1.69-.37.91-.14,1.66-.22,1.57-.21,2.34-.36,1.47-.28,2.1-.43h0a2.58,2.58,0,0,0,1.54-.87c.48-.49.55-1.36.25-2.77-.26-1.15-.43-2-.54-2.66l-6.36-35.91a29,29,0,0,0,3.77-.54c1.32-.27,2.74-.54,4.25-.81.44-.09,1.09-.18,1.95-.28l2.58-.32a13.27,13.27,0,0,0,2.48-.51,3.18,3.18,0,0,0,1.79-1,2.76,2.76,0,0,0,.2-2.13Z" transform="translate(-42.71 -36.91)"/><path class="cls-1" d="M279.09,442.41a31.48,31.48,0,0,0-2.38-6.58,21.61,21.61,0,0,0-4.14-5.83,22,22,0,0,0-6.06-4.25,20.59,20.59,0,0,0-8.16-1.94A17.93,17.93,0,0,0,250.5,425a26.79,26.79,0,0,0-6,3.39A26,26,0,0,0,236,439.72a33.52,33.52,0,0,0-2,8.41c-.32,3-.71,6.2-1.19,9.47q-1.35,9.6-2.55,18.53c-.8,6-1.7,12.15-2.64,18.21-.48,2.84-.85,5.69-1.05,8.46a26.76,26.76,0,0,0,.57,8,25.08,25.08,0,0,0,2.45,6.64,22.13,22.13,0,0,0,9.77,9.78,17.06,17.06,0,0,0,8,2,26.81,26.81,0,0,0,3.71-.12,21.73,21.73,0,0,0,9.79-3.65,24.84,24.84,0,0,0,8.92-10.87,26.8,26.8,0,0,0,2.22-8.06c.38-3,.8-6.21,1.26-9.55l2.64-18.64c.28-2,.6-4.17,1-6.56l1.16-7.19c.36-2.31.72-4.75,1-7.25s.55-4.65.75-6.79c0-1.45,0-2.87-.1-4.25A22,22,0,0,0,279.09,442.41Zm-17,7.59c0,.5-.13,1-.16,1.53-.09.76-.15,1.53-.26,2.3-.18,1.35-.39,2.71-.64,4.08s-.45,2.64-.61,3.74l-5.9,41.84c-.06.49-.17.94-.25,1.36a9.66,9.66,0,0,1-.54,1.67c0,.05-.1.09-.13.15a8.92,8.92,0,0,1-2,2.27,4.36,4.36,0,0,1-2.21.91c-.2,0-.35,0-.52,0a5.11,5.11,0,0,1-3.47-1.28,6.34,6.34,0,0,1-1.08-1.27,5.38,5.38,0,0,1-.75-1.59,9.09,9.09,0,0,1-.3-2.79,37.74,37.74,0,0,1,.34-3.83c.2-1.35.41-2.7.65-4.09s.47-2.69.62-3.86l2.46-17.4h0l.05-.34.12-.83.15-1.1L251,448.66a8.1,8.1,0,0,1,.92-3,6.61,6.61,0,0,1,2.14-2.1,5.28,5.28,0,0,1,2.26-.77,5,5,0,0,1,.77,0,4.39,4.39,0,0,1,3.12,1.29,6.05,6.05,0,0,1,1.84,3A13.1,13.1,0,0,1,262.12,450Z" transform="translate(-42.71 -36.91)"/><path class="cls-1" d="M229.37,431.45a32.56,32.56,0,0,0,.09-5.82A26.5,26.5,0,0,0,226,414.86a19.82,19.82,0,0,0-9.41-8.13l-.21-.1-.2.06a25.28,25.28,0,0,0-5.39-1.52,18.65,18.65,0,0,0-5.47-.08,27.91,27.91,0,0,0-4.94,1.41c-.48.19-.92.4-1.37.6a1.8,1.8,0,0,1-.23-.46l-.15,0v0s0,0-.09,0a.67.67,0,0,1,.36.4l.06.11a27,27,0,0,0-2.69,1.35,27.35,27.35,0,0,0-4.05,2.95,26,26,0,0,0-3.7,4.15,28.14,28.14,0,0,0-3.25,5.18l-2.73,5.73c-1.16,2.38-2.4,5-3.71,7.85l-1.09,2.34h0l-.1.21c-.83,1.77-1.66,3.55-2.53,5.38l0,0-1,2.11a.18.18,0,0,1,.07-.05l-1.23,2.55,0,0h0l0,0L166,461.25c-1,2.13-2,4.18-2.93,6.15-.77,1.58-1.43,3.11-2,4.6-.25.73-.86,2.59-1.33,4.58-.09.49-.19,1-.27,1.44a22.91,22.91,0,0,0-.34,6.15,26.38,26.38,0,0,0,2.66,9.18,21.62,21.62,0,0,0,6.76,7.59,16.08,16.08,0,0,0,5.46,2.87c.33.09.61.13.92.2a20.77,20.77,0,0,0,4.46.73l.66,0a24.16,24.16,0,0,0,8.88-1.64,23.5,23.5,0,0,0,3.56-1.75h0a20.66,20.66,0,0,0,4.85-3.67,23.69,23.69,0,0,0,3.53-4.28c.48-.74,1-1.59,1.49-2.53a1.3,1.3,0,0,0-.18-.23.84.84,0,0,0,.52-.76c0-.15,0-.23.14-.29a.51.51,0,0,1,0,.1l-.05.39h0c.42-.8.85-1.65,1.29-2.57l2.91-6c.16-.33.39-.75.69-1.29s.62-1.14.91-1.73a13.35,13.35,0,0,0,.68-1.75,2.32,2.32,0,0,0,0-1.62,3.29,3.29,0,0,0-1.54-1.17l-9.29-4.46c-.57-.28-1.2-.59-1.92-1a2.6,2.6,0,0,0-2.1-.44,3,3,0,0,0-1.61,1.84c-.35.83-.64,1.49-.87,2L190,475.93c-.62,1.29-1.26,2.73-1.91,4.27a9.85,9.85,0,0,1-2,3.23,6,6,0,0,1-2.47,1.78,8.28,8.28,0,0,1-2.57.36,4,4,0,0,1-3.6-2.16,8,8,0,0,1-1-4.14,11.76,11.76,0,0,1,1-3L199,431.62c.55-1.15,1.09-2.34,1.61-3.55a8.55,8.55,0,0,1,1.85-2.77,6.15,6.15,0,0,1,4.83-1.79,4.26,4.26,0,0,1,3.6,2.23,7.06,7.06,0,0,1,.81,3.91,9.27,9.27,0,0,1-1.12,3.65c-.74,1.42-1.45,2.88-2.17,4.36-.47,1-1.08,2.17-1.84,3.54-.87,1.52-1.09,2.57-.72,3.31a3.49,3.49,0,0,0,1.68,1.41l9.11,4.36c.4.2,1,.49,1.72.91a3,3,0,0,0,2.35.41c.41-.13.76-.52,1.18-1.24.31-.55.65-1.2,1-1.9s.65-1.42.93-2.1.47-1.15.64-1.49c.62-1.28,1.21-2.49,1.78-3.56a34.47,34.47,0,0,0,1.54-3.36A25.52,25.52,0,0,0,229.37,431.45Z" transform="translate(-42.71 -36.91)"/><path class="cls-1" d="M152.59,204.38c.84.27,1.69.57,2.5.9s1.86.73,3,1.15c.33.17.75.35,1.26.58s1,.42,1.59.61,1.07.36,1.6.5a2.33,2.33,0,0,0,1.14,0l.1-.06a2.9,2.9,0,0,0,1.11-1.38l5.36-10.18a2.23,2.23,0,0,0,.36-1.73c-.14-.71-.92-1.24-2.39-1.7l-3.25-1-2.42-.93-6.63-2.43c-3-1.11-5.95-2.18-8.81-3.22-11.13-4-22.21-8-32.91-11.94-10.9-4-21.93-8-32.83-11.87-.94-.32-1.9-.68-2.88-1.1a6.39,6.39,0,0,0-3.07-.55h-.17l-.12.18A64,64,0,0,0,71.87,166c-1.07,2.14-2.14,4.17-3.11,6-.3.55-.72,1.24-1.17,1.94a4.87,4.87,0,0,0-.9,2.06,1.67,1.67,0,0,0,.67,1.67,15.31,15.31,0,0,1,1.51,1.21c12.36,8.95,24.92,18,37.33,26.77,9.56,6.83,19.23,13.76,28.87,20.73l-.11.06,12.39,9.25a1.65,1.65,0,0,0,2.45-.54l3.36-6.22,2.46-4.69a3.29,3.29,0,0,0,.56-1.73c-.06-.64-.65-1.28-1.88-2a15.42,15.42,0,0,1-2.43-1.64c-2.4-1.73-4.71-3.37-6.93-4.85s-4.42-3.07-6.71-4.76c0,0-.1,0-.11-.08a1.26,1.26,0,0,0,.31-.57,14.49,14.49,0,0,1,2-3.65,12.1,12.1,0,0,0,1.95-3.86,1.89,1.89,0,0,0,.05-.8,29.75,29.75,0,0,0,4.47,2C148.71,202.92,150.53,203.59,152.59,204.38Zm-29.79-5.86-.11-.07,0-.52-.19.35-.93-.64a3.48,3.48,0,0,0-.78-.62c-.32-.18-.65-.39-1-.6L116,193.83c-.13-.1-.25-.18-.38-.29a16.53,16.53,0,0,0-1.66-1.11l-9.11-6.28.81.32,0,.05.45.14,3.94,1.5v0c1.58.62,3.17,1.25,4.74,1.9,2.57,1.08,5.17,2,7.73,2.8l1.46.55a.75.75,0,0,0,.27.34.76.76,0,0,0,.43,0,.59.59,0,0,0,.44.07Z" transform="translate(-42.71 -36.91)"/><path class="cls-1" d="M165.79,97.47c3.58,7,7.34,14.31,11.11,21.54s7.5,14.28,11.18,21.35,7.15,14,10.5,20.68a25.59,25.59,0,0,0,1,2.38c.47,1.06,1.17,1.56,2.07,1.46h.09L213.36,159l.13-.13a2.25,2.25,0,0,0,0-2.58c-.46-.8-.91-1.65-1.35-2.53l-8.85-17.29c-.88-1.69-1.68-3.24-2.48-4.67a10.06,10.06,0,0,1-1.31-3.73l0-.38h-.27s.05,0,.05,0h.52l-.13-.49a3,3,0,0,1-.17-1.07c0-.28,0-.61,0-.92a3.38,3.38,0,0,0,.53.49c3.82,3.76,7.68,7.58,11.54,11.49s7.7,7.71,11.42,11.53c.58.58,1.15,1.19,1.7,1.79a5.72,5.72,0,0,0,2.22,1.5l.15,0,13.8-7,.06-.11a2,2,0,0,0-.51-2.74c-.77-.77-1.4-1.42-2-1.94q-9.84-9.54-19.2-18.68l-7.58-7.42s0,0,0-.09v-.12l-.09.12q-5.67-5.53-11.5-11.19a20.42,20.42,0,0,0-1.6-1.41,4.41,4.41,0,0,1-1.13-1.2,5.34,5.34,0,0,1-.09-1.12c-.06-.53-.11-1-.16-1.51-.26-3.35-.51-6.62-.76-9.86l-.19-3.13,0-.24A.77.77,0,0,0,196,84c-.11-1.38-.22-2.79-.32-4.15-.46-5.61-.89-11.5-1.31-17.48,0-.41-.06-1-.09-1.71a20.46,20.46,0,0,0-.22-2.08,5.15,5.15,0,0,0-.52-1.76,1.42,1.42,0,0,0-1.54-.78A12,12,0,0,0,189,57.47c-1.22.71-2.29,1.31-3.1,1.73-1.18.62-2.29,1.12-3.3,1.55a12.15,12.15,0,0,0-3,1.68,2.52,2.52,0,0,0-.47,2.23c.12.9.22,1.66.27,2.33.39,4.63.7,9.3.94,13.86.23,4.24.58,8.39,1,12.4l-1.59-3v0l0,0-3-5.66-5.28-10.31c-.35-.7-.71-1.48-1.1-2.42A9.11,9.11,0,0,0,169,69.5a1.67,1.67,0,0,0-1.55-.59,8.07,8.07,0,0,0-1.95.59,19.5,19.5,0,0,0-2.13,1.1c-.67.38-1.35.75-2,1.1-1.05.55-2.08,1-3.07,1.49a19.52,19.52,0,0,0-2.62,1.46,1.67,1.67,0,0,0-.44.71l-.24.76.08.12C158.46,83.07,162.07,90.2,165.79,97.47Z" transform="translate(-42.71 -36.91)"/></svg>