<svg xmlns="http://www.w3.org/2000/svg" width="230" height="68" viewBox="0 0 230 68">
  <defs>
    <linearGradient id="google-store-a" x1="60.839%" x2="26.871%" y1="4.95%" y2="71.926%">
      <stop offset="0%" stop-color="#00A0FF"/>
      <stop offset=".657%" stop-color="#00A1FF"/>
      <stop offset="26.01%" stop-color="#00BEFF"/>
      <stop offset="51.22%" stop-color="#00D2FF"/>
      <stop offset="76.04%" stop-color="#00DFFF"/>
      <stop offset="100%" stop-color="#00E3FF"/>
    </linearGradient>
    <linearGradient id="google-store-b" x1="107.63%" x2="-130.552%" y1="50%" y2="50%">
      <stop offset="0%" stop-color="#FFE000"/>
      <stop offset="40.87%" stop-color="#FFBD00"/>
      <stop offset="77.54%" stop-color="orange"/>
      <stop offset="100%" stop-color="#FF9C00"/>
    </linearGradient>
    <linearGradient id="google-store-c" x1="86.243%" x2="-50.129%" y1="30.158%" y2="139.38%">
      <stop offset="0%" stop-color="#FF3A44"/>
      <stop offset="100%" stop-color="#C31162"/>
    </linearGradient>
    <linearGradient id="google-store-d" x1="-18.811%" x2="42.085%" y1="-14.315%" y2="34.486%">
      <stop offset="0%" stop-color="#32A071"/>
      <stop offset="6.85%" stop-color="#2DA771"/>
      <stop offset="47.62%" stop-color="#15CF74"/>
      <stop offset="80.09%" stop-color="#06E775"/>
      <stop offset="100%" stop-color="#00F076"/>
    </linearGradient>
  </defs>
  <g fill="none" fill-rule="evenodd" transform="translate(-.227)">
    <path fill="#000" fill-rule="nonzero" d="M221.70528,68 L8.74858541,68 C4.05194463,68 0.226932668,64.167581 0.226932668,59.5 L0.226932668,8.5 C0.226932668,3.81546135 4.05194463,0 8.74858541,0 L221.70528,0 C226.39769,0 230.226933,3.81546135 230.226933,8.5 L230.226933,59.5 C230.226933,64.167581 226.39769,68 221.70528,68 Z"/>
    <path fill="#A6A6A6" d="M221.70528,1.36084788 C225.644534,1.36084788 228.868715,4.57007481 228.868715,8.5 L228.868715,59.5 C228.868715,63.4299252 225.665691,66.6391521 221.70528,66.6391521 L8.74858541,66.6391521 C4.80933084,66.6391521 1.58515041,63.4299252 1.58515041,59.5 L1.58515041,8.5 C1.58515041,4.57007481 4.7881748,1.36084788 8.74858541,1.36084788 C8.74858541,1.36084788 221.70528,1.36084788 221.70528,1.36084788 Z M221.70528,0 L8.74858541,0 C4.05194463,0 0.226932668,3.83241895 0.226932668,8.5 L0.226932668,59.5 C0.226932668,64.1845387 4.05194463,68 8.74858541,68 L221.70528,68 C226.39769,68 230.226933,64.1845387 230.226933,59.5 L230.226933,8.5 C230.226933,3.83241895 226.39769,0 221.70528,0 Z"/>
    <path fill="#FFF" fill-rule="nonzero" d="M121.216392,22 C119.685822,22 118.39559,21.4612418 117.375211,20.4006942 C116.363264,19.3698419 115.798261,17.9487081 115.82356,16.4978789 C115.82356,14.9494794 116.346399,13.6386425 117.375211,12.5993058 C118.391374,11.5387582 119.681606,11 121.212175,11 C122.725879,11 124.01611,11.5387582 125.053356,12.5993058 C126.082168,13.67258 126.605007,14.9834169 126.605007,16.4978789 C126.588141,18.0505206 126.065302,19.3613575 125.053356,20.396452 C124.037193,21.465484 122.746961,22 121.216392,22 Z M75.6745785,22 C74.1777408,22 72.879076,21.4697262 71.8165321,20.4219051 C70.7624211,19.3783263 70.2269327,18.059005 70.2269327,16.5021211 C70.2269327,14.9452372 70.7624211,13.6259159 71.8165321,12.5823371 C72.8579938,11.534516 74.1566586,11.0042422 75.6745785,11.0042422 C76.4166727,11.0042422 77.1376846,11.1527189 77.8291814,11.4539144 C78.5080289,11.7466255 79.0603831,12.1453914 79.4693782,12.6332433 L79.5705729,12.7562669 L78.4279165,13.8846895 L78.3098561,13.7446973 C77.6647401,12.9726186 76.8003691,12.5950636 75.6577127,12.5950636 C74.6373332,12.5950636 73.7476635,12.959892 73.0140022,13.6810644 C72.2761245,14.406479 71.900861,15.3567297 71.900861,16.5063633 C71.900861,17.6559969 72.2761245,18.6062476 73.0140022,19.3316622 C73.7476635,20.0528346 74.6373332,20.4176629 75.6577127,20.4176629 C76.7455553,20.4176629 77.6605237,20.0528346 78.3731027,19.3316622 C78.7947471,18.9074431 79.0561667,18.3135364 79.1489285,17.5626687 L75.4848385,17.5626687 L75.4848385,15.9760895 L80.7216621,15.9760895 L80.7427443,16.1203239 C80.7806923,16.387582 80.8186403,16.6633243 80.8186403,16.9178558 C80.8186403,18.3814115 80.3801301,19.5649826 79.5115426,20.4388739 C78.5248947,21.4739684 77.2346628,22 75.6745785,22 Z M136.226933,21.7751639 L134.612035,21.7751639 L129.666146,13.8125723 L129.70831,15.2464327 L129.70831,21.7709217 L128.093412,21.7709217 L128.093412,11.2290783 L129.935998,11.2290783 L129.986595,11.3096799 L134.637333,18.8098727 L134.595169,17.3802545 L134.595169,11.2290783 L136.226933,11.2290783 L136.226933,21.7751639 L136.226933,21.7751639 Z M109.081465,21.7751639 L107.445485,21.7751639 L107.445485,12.8156575 L104.607818,12.8156575 L104.607818,11.2290783 L111.914916,11.2290783 L111.914916,12.8156575 L109.077249,12.8156575 L109.077249,21.7751639 L109.081465,21.7751639 Z M103.275422,21.7751639 L101.643658,21.7751639 L101.643658,11.2290783 L103.275422,11.2290783 L103.275422,21.7751639 Z M94.1046558,21.7751639 L92.4728919,21.7751639 L92.4728919,12.8156575 L89.635225,12.8156575 L89.635225,11.2290783 L96.9423227,11.2290783 L96.9423227,12.8156575 L94.1046558,12.8156575 L94.1046558,21.7751639 Z M88.6021962,21.7581951 L82.3449931,21.7581951 L82.3449931,11.2290783 L88.6021962,11.2290783 L88.6021962,12.8156575 L83.9809734,12.8156575 L83.9809734,15.7088315 L88.1510367,15.7088315 L88.1510367,17.278442 L83.9809734,17.278442 L83.9809734,20.1716159 L88.6021962,20.1716159 L88.6021962,21.7581951 Z M118.572681,19.3104512 C119.302126,20.0443502 120.187579,20.4134207 121.216392,20.4134207 C122.274719,20.4134207 123.13909,20.0528346 123.860102,19.3104512 C124.576898,18.5892788 124.939512,17.6432703 124.939512,16.5021211 C124.939512,15.3609718 124.576898,14.4107212 123.864318,13.693791 C123.134874,12.959892 122.245204,12.5908214 121.220608,12.5908214 C120.162281,12.5908214 119.297909,12.9514076 118.581114,13.693791 C117.864318,14.4149634 117.501704,15.3609718 117.501704,16.5021211 C117.501704,17.6432703 117.860102,18.593521 118.572681,19.3104512 L118.572681,19.3104512 Z"/>
    <path fill="#FFF" d="M116.219811,37.0406968 C112.215456,37.0406968 108.969598,40.0846143 108.969598,44.2832675 C108.969598,48.4437125 112.236643,51.5258381 116.219811,51.5258381 C120.224167,51.5258381 123.470025,48.4606939 123.470025,44.2832675 C123.470025,40.0846143 120.224167,37.0406968 116.219811,37.0406968 Z M116.219811,48.6559801 C114.029069,48.6559801 112.14342,46.8389694 112.14342,44.266286 C112.14342,41.6553945 114.033306,39.876592 116.219811,39.876592 C118.410554,39.876592 120.29621,41.6553945 120.29621,44.266286 C120.30044,46.8559508 118.410554,48.6559801 116.219811,48.6559801 Z M100.401549,37.0406968 C96.3971943,37.0406968 93.151336,40.0846143 93.151336,44.2832675 C93.151336,48.4437125 96.4183813,51.5258381 100.401549,51.5258381 C104.405905,51.5258381 107.651763,48.4606939 107.651763,44.2832675 C107.651763,40.0846143 104.401667,37.0406968 100.401549,37.0406968 Z M100.401549,48.6559801 C98.210807,48.6559801 96.3251583,46.8389694 96.3251583,44.266286 C96.3251583,41.6553945 98.2150444,39.876592 100.401549,39.876592 C102.592292,39.876592 104.477941,41.6553945 104.477941,44.266286 C104.477941,46.8559508 102.592292,48.6559801 100.401549,48.6559801 Z M81.5789616,39.2525253 L81.5789616,42.3176694 L88.922398,42.3176694 C88.6978152,44.037037 88.1300018,45.3063973 87.2613322,46.1766945 C86.1850294,47.2550139 84.5239635,48.4267311 81.5959113,48.4267311 C77.0830666,48.4267311 73.5533017,44.7757283 73.5533017,40.2544283 C73.5533017,35.7331284 77.0830666,32.0821256 81.5959113,32.0821256 C84.0324236,32.0821256 85.8078996,33.0458205 87.125735,34.2769726 L89.2952904,32.1033524 C87.464728,30.3457766 85.0282157,29 81.6128609,29 C75.4220008,29 70.2269327,34.051969 70.2269327,40.2374469 C70.2269327,46.4399063 75.4177634,51.4748939 81.6128609,51.4748939 C84.9561796,51.4748939 87.464728,50.379593 89.4478372,48.3163519 C91.4690832,46.291319 92.1089325,43.434197 92.1089325,41.1289709 C92.1089325,40.4115064 92.0538461,39.7662129 91.939436,39.2185624 L81.5747242,39.2185624 C81.5789616,39.2143171 81.5789616,39.2525253 81.5789616,39.2525253 Z M158.568515,41.6384131 C157.962565,40.0124433 156.132003,37.0237154 152.377655,37.0237154 C148.657207,37.0237154 145.563895,39.9572537 145.563895,44.266286 C145.563895,48.3333333 148.623307,51.5088567 152.737835,51.5088567 C156.043017,51.5088567 157.966803,49.4838237 158.759199,48.2951252 L156.305737,46.6479286 C155.492154,47.8578539 154.360764,48.6517347 152.754785,48.6517347 C151.131856,48.6517347 149.996229,47.9130435 149.24197,46.4568877 L158.907508,42.44503 C158.907508,42.4492754 158.568515,41.6384131 158.568515,41.6384131 Z M148.712293,44.0582638 C148.63602,41.2605768 150.881848,39.8383838 152.487828,39.8383838 C153.754814,39.8383838 154.80993,40.4624506 155.17011,41.3709559 L148.712293,44.0582638 Z M140.860367,51.0758308 L144.034189,51.0758308 L144.034189,29.7981262 L140.860367,29.7981262 L140.860367,51.0758308 Z M135.648349,38.6496853 L135.533939,38.6496853 C134.817816,37.7963695 133.457607,37.0237154 131.720268,37.0237154 C128.114229,37.0237154 124.792098,40.2034841 124.792098,44.2875128 C124.792098,48.3545601 128.09728,51.4961206 131.720268,51.4961206 C133.43642,51.4961206 134.817816,50.7192212 135.533939,49.848924 L135.648349,49.848924 L135.648349,50.8890353 C135.648349,53.6527595 134.17373,55.1428781 131.796541,55.1428781 C129.851569,55.1428781 128.643906,53.7419119 128.152366,52.5701947 L125.39381,53.7249305 C126.186206,55.6353389 128.300675,58 131.792304,58 C135.512752,58 138.665387,55.805153 138.665387,50.451764 L138.665387,37.4567413 L135.665299,37.4567413 L135.665299,38.6496853 C135.669536,38.6496853 135.648349,38.6496853 135.648349,38.6496853 Z M132.004174,48.6559801 C129.813432,48.6559801 127.982869,46.821988 127.982869,44.2875128 C127.982869,41.7318109 129.813432,39.8808374 132.004174,39.8808374 C134.17373,39.8808374 135.855982,41.7530376 135.855982,44.2875128 C135.87717,46.821988 134.177967,48.6559801 132.004174,48.6559801 Z M173.429122,29.7981262 L165.839916,29.7981262 L165.839916,51.0758308 L169.013738,51.0758308 L169.013738,43.0181525 L173.433359,43.0181525 C176.946175,43.0181525 180.399666,40.4666959 180.399666,36.4166301 C180.399666,32.3665642 176.958887,29.7981262 173.429122,29.7981262 Z M173.522345,40.0464061 L169.0095,40.0464061 L169.0095,32.7444005 L173.522345,32.7444005 C175.899534,32.7444005 177.242794,34.7099985 177.242794,36.3954033 C177.242794,38.0638267 175.882584,40.0464061 173.522345,40.0464061 Z M193.120379,37.0024887 C190.815227,37.0024887 188.438038,38.0256185 187.454958,40.2544283 L190.268601,41.4261455 C190.874551,40.2544283 191.984753,39.8553652 193.158516,39.8553652 C194.802632,39.8553652 196.463698,40.8402869 196.501835,42.5978627 L196.501835,42.8228663 C195.934022,42.5002196 194.688222,42.0077587 193.196653,42.0077587 C190.158428,42.0077587 187.077829,43.6719368 187.077829,46.7922705 C187.077829,49.6493925 189.569427,51.4833846 192.344933,51.4833846 C194.476351,51.4833846 195.650115,50.5196897 196.383187,49.4031621 L196.497597,49.4031621 L196.497597,51.0503587 L199.557009,51.0503587 L199.557009,42.8992827 C199.557009,39.1039379 196.743367,37.0024887 193.120379,37.0024887 Z M192.722063,48.6559801 C191.683896,48.6559801 190.230464,48.1465378 190.230464,46.8389694 C190.230464,45.1917728 192.044077,44.567706 193.590732,44.567706 C194.989078,44.567706 195.650115,44.869126 196.480648,45.2851705 C196.251827,47.195579 194.641611,48.6389987 192.722063,48.6559801 Z M210.718355,37.4567413 L207.07418,46.6861367 L206.95977,46.6861367 L203.184235,37.4567413 L199.76888,37.4567413 L205.434301,50.3583663 L202.205392,57.5287659 L205.510574,57.5287659 L214.226933,37.4567413 C214.226933,37.4567413 210.718355,37.4567413 210.718355,37.4567413 Z M182.149718,51.0758308 L185.32354,51.0758308 L185.32354,29.7981262 L182.149718,29.7981262 L182.149718,51.0758308 Z"/>
    <path fill="url(#google-store-a)" d="M18.0032535,12.1155454 C17.5111594,12.6504777 17.2269327,13.4678543 17.2269327,14.5377189 L17.2269327,52.4836783 C17.2269327,53.553543 17.5111594,54.3709196 18.0202223,54.8844546 L18.1517302,55 L39.2269327,33.7396497 L39.2269327,33.2646298 L18.1347614,12 C18.1347614,12 18.0032535,12.1155454 18.0032535,12.1155454 Z"/>
    <path fill="url(#google-store-b)" d="M46.1416918,42 L39.2269327,34.7536443 L39.2269327,34.2463557 L46.1416918,27 L46.2919219,27.0962099 L54.471118,31.96793 C56.8122042,33.3498542 56.8122042,35.6326531 54.471118,37.03207 L46.2919219,41.9037901 C46.2919219,41.9037901 46.1416918,42 46.1416918,42 Z"/>
    <path fill="url(#google-store-c)" d="M46.2269327,41.2207283 L39.1432507,34 L18.2269327,55.3209811 C18.992623,56.1569308 20.2771419,56.2507618 21.7122883,55.4361374 L46.2269327,41.2207283"/>
    <path fill="url(#google-store-d)" d="M46.2269327,26.7750553 L21.7122883,12.5726833 C20.2771419,11.7362455 18.9884389,11.8514691 18.2269327,12.6879069 L39.1432507,34 L46.2269327,26.7750553 Z"/>
    <path fill="#000" fill-rule="nonzero" d="M46.0595687,41 L21.7122883,55.1704892 C20.3524557,55.9720263 19.1390666,55.9163045 18.3566398,55.1876344 L18.2269327,55.3205095 L18.3566398,55.4362395 C19.1390666,56.1606232 20.3524557,56.2206314 21.7122883,55.4190943 L46.2269327,41.1543066 C46.2269327,41.1543066 46.0595687,41 46.0595687,41 Z" opacity=".2"/>
    <path fill="#000" fill-rule="nonzero" d="M54.512647,36.1541642 L46.2269327,40.8511518 L46.376001,41 L54.491943,36.3939752 C55.6555041,35.7324276 56.2269327,34.8641465 56.2269327,34 C56.1565393,34.7938571 55.5644068,35.5463674 54.512647,36.1541642 Z" opacity=".12"/>
    <path fill="#FFF" d="M21.5087567,12.8273744 L54.4611017,31.7773649 C55.5315577,32.3874164 56.134216,33.185176 56.2269327,34 C56.2269327,33.1083863 55.6453463,32.2125065 54.4611017,31.5299315 L21.5087567,12.579941 C19.1444818,11.2105247 17.2269327,12.353838 17.2269327,15.0884044 L17.2269327,15.3358378 C17.2269327,12.5970054 19.1444818,11.4750226 21.5087567,12.8273744 Z" opacity=".25"/>
  </g>
</svg>
